<?xml version="1.0" encoding="UTF-8"?>
<svg width="735px" height="107px" viewBox="0 0 735 107" version="1.1" xmlns="http://www.w3.org/2000/svg" xmlns:xlink="http://www.w3.org/1999/xlink">
    <title>edlintics_logo_darkmode</title>
    <defs>
        <path d="M270.793948,105 L270.793948,88.5253906 L224.583011,88.5253906 L224.583011,61.8652344 L263.958011,61.8652344 L263.958011,45.8007812 L224.583011,45.8007812 L224.583011,22.0800781 L270.657229,22.0800781 L270.657229,5.46875 L204.075198,5.46875 L204.075198,105 L270.793948,105 Z M306.799026,106.367188 C314.546422,106.367188 320.881057,103.291016 325.802932,97.1386719 L325.802932,97.1386719 L326.759964,105 L344.601761,105 L344.601761,0 L324.777542,0 L324.777542,37.734375 C320.083531,32.3567708 314.136266,29.6679687 306.935745,29.6679687 C297.95788,29.6679687 290.882685,33.0859375 285.710159,39.921875 C280.537633,46.7578125 277.95137,55.9407552 277.95137,67.4707031 C277.95137,79.6842448 280.583206,89.2203776 285.846878,96.0791016 C291.11055,102.937826 298.094599,106.367188 306.799026,106.367188 Z M311.85762,90.3710938 C307.254755,90.3710938 303.745641,88.5253906 301.330276,84.8339844 C298.914912,81.1425781 297.707229,75.8333333 297.707229,68.90625 C297.707229,53.4570312 302.469599,45.7324219 311.994339,45.7324219 C318.055537,45.7324219 322.316604,48.3072917 324.777542,53.4570312 L324.777542,53.4570312 L324.777542,82.6464844 C322.271031,87.796224 317.964391,90.3710938 311.85762,90.3710938 Z M381.56387,105 L381.56387,0 L361.739651,0 L361.739651,105 L381.56387,105 Z M409.570901,22.1484375 C412.897724,22.1484375 415.575133,21.1914062 417.603128,19.2773438 C419.631123,17.3632812 420.64512,14.9023438 420.64512,11.8945312 C420.64512,8.93229167 419.642516,6.49414062 417.637307,4.58007812 C415.632099,2.66601562 412.943297,1.70898438 409.570901,1.70898438 C406.152932,1.70898438 403.452737,2.66601562 401.470315,4.58007812 C399.487893,6.49414062 398.496682,8.93229167 398.496682,11.8945312 C398.496682,14.9023438 399.51068,17.3632812 401.538675,19.2773438 C403.566669,21.1914062 406.244078,22.1484375 409.570901,22.1484375 Z M419.483011,105 L419.483011,31.0351562 L399.658792,31.0351562 L399.658792,105 L419.483011,105 Z M455.898245,105 L455.898245,52.8417969 C458.678193,48.1022135 462.848115,45.7324219 468.408011,45.7324219 C472.646292,45.7324219 475.676891,46.6780599 477.499807,48.5693359 C479.322724,50.460612 480.234182,53.5026042 480.234182,57.6953125 L480.234182,57.6953125 L480.234182,105 L499.990042,105 L499.990042,57.2167969 C499.898896,48.0566406 497.939261,41.1751302 494.111136,36.5722656 C490.283011,31.969401 484.449677,29.6679688 476.611136,29.6679688 C467.724417,29.6679688 460.637828,32.9720052 455.35137,39.5800781 L455.35137,39.5800781 L454.736136,31.0351562 L436.142386,31.0351562 L436.142386,105 L455.898245,105 Z M540.848636,106.367188 C544.950198,106.367188 548.937828,105.77474 552.811526,104.589844 L552.811526,104.589844 L552.811526,89.6191406 C551.125328,89.938151 549.188479,90.0976562 547.000979,90.0976562 C544.03874,90.0976562 542.033531,89.5052083 540.985354,88.3203125 C539.937177,87.1354167 539.413089,85.1757812 539.413089,82.4414062 L539.413089,82.4414062 L539.413089,45.5273438 L552.059573,45.5273438 L552.059573,31.0351562 L539.413089,31.0351562 L539.413089,12.8515625 L519.657229,12.8515625 L519.657229,31.0351562 L508.856448,31.0351562 L508.856448,45.5273438 L519.657229,45.5273438 L519.657229,85.3808594 C519.930667,99.3717448 526.994469,106.367188 540.848636,106.367188 Z M574.802932,22.1484375 C578.129755,22.1484375 580.807164,21.1914062 582.835159,19.2773438 C584.863154,17.3632812 585.877151,14.9023438 585.877151,11.8945312 C585.877151,8.93229167 584.874547,6.49414062 582.869339,4.58007812 C580.86413,2.66601562 578.175328,1.70898438 574.802932,1.70898438 C571.384964,1.70898438 568.684768,2.66601562 566.702346,4.58007812 C564.719925,6.49414062 563.728714,8.93229167 563.728714,11.8945312 C563.728714,14.9023438 564.742711,17.3632812 566.770706,19.2773438 C568.798701,21.1914062 571.476109,22.1484375 574.802932,22.1484375 Z M584.715042,105 L584.715042,31.0351562 L564.890823,31.0351562 L564.890823,105 L584.715042,105 Z M632.888089,106.367188 C638.53913,106.367188 643.700263,105.216471 648.371487,102.915039 C653.042711,100.613607 656.722724,97.3779297 659.411526,93.2080078 C662.100328,89.0380859 663.467516,84.4466146 663.513089,79.4335938 L663.513089,79.4335938 L644.987698,79.4335938 C644.896552,82.7604167 643.711656,85.4264323 641.433011,87.4316406 C639.154365,89.436849 636.192125,90.4394531 632.546292,90.4394531 C627.806708,90.4394531 624.274807,88.7760417 621.950589,85.4492188 C619.62637,82.1223958 618.464261,76.6536458 618.464261,69.0429688 L618.464261,69.0429688 L618.464261,66.9921875 C618.464261,59.4726562 619.637763,54.0380859 621.984768,50.6884766 C624.331774,47.3388672 627.806708,45.6640625 632.409573,45.6640625 C636.146552,45.6640625 639.154365,46.8603516 641.433011,49.2529297 C643.711656,51.6455078 644.896552,54.7558594 644.987698,58.5839844 L644.987698,58.5839844 L663.513089,58.5839844 C663.421943,49.8339844 660.585029,42.8271484 655.002346,37.5634766 C649.419664,32.2998047 642.002672,29.6679688 632.75137,29.6679688 C622.178453,29.6679688 613.861396,33.063151 607.800198,39.8535156 C601.739,46.6438802 598.708401,55.7356771 598.708401,67.1289062 L598.708401,67.1289062 L598.708401,68.4277344 C598.708401,80.2766927 601.761787,89.5621745 607.868557,96.2841797 C613.975328,103.006185 622.315172,106.367188 632.888089,106.367188 Z M703.756448,106.367188 C712.916604,106.367188 720.390563,104.282227 726.178323,100.112305 C731.966083,95.9423828 734.859964,90.485026 734.859964,83.7402344 C734.859964,74.3066406 729.641865,67.6757812 719.205667,63.8476562 C715.833271,62.6171875 711.686136,61.5120443 706.764261,60.5322266 C701.842386,59.5524089 698.344664,58.3902995 696.271096,57.0458984 C694.197529,55.7014974 693.160745,53.9355469 693.160745,51.7480469 C693.160745,49.4238281 694.072203,47.5097656 695.89512,46.0058594 C697.718037,44.5019531 700.292906,43.75 703.619729,43.75 C707.493427,43.75 710.341734,44.6728516 712.164651,46.5185547 C713.987568,48.3642578 714.899026,50.6998698 714.899026,53.5253906 L714.899026,53.5253906 L734.654886,53.5253906 C734.654886,46.4615885 731.840758,40.719401 726.212503,36.2988281 C720.584248,31.8782552 713.076109,29.6679688 703.688089,29.6679688 C694.892516,29.6679688 687.771748,31.866862 682.325784,36.2646484 C676.87982,40.6624349 674.156839,46.1425781 674.156839,52.7050781 C674.156839,63.9615885 682.952412,71.4355469 700.543557,75.1269531 C705.830016,76.2207031 709.669534,77.4625651 712.062112,78.8525391 C714.45469,80.242513 715.650979,82.1451823 715.650979,84.5605469 C715.650979,86.8847656 714.682555,88.7646484 712.745706,90.2001953 C710.808857,91.6357422 707.949156,92.3535156 704.166604,92.3535156 C700.110615,92.3535156 696.874938,91.4192708 694.459573,89.5507812 C692.044208,87.6822917 690.74538,84.9934896 690.563089,81.484375 L690.563089,81.484375 L671.83262,81.484375 C671.83262,85.9505208 673.199807,90.1090495 675.934182,93.9599609 C678.668557,97.8108724 682.439716,100.841471 687.247659,103.051758 C692.055602,105.262044 697.558531,106.367188 703.756448,106.367188 Z" id="path-1"></path>
        <filter x="-0.4%" y="-1.9%" width="100.8%" height="103.8%" filterUnits="objectBoundingBox" id="filter-2">
            <feGaussianBlur stdDeviation="1.5" in="SourceAlpha" result="shadowBlurInner1"></feGaussianBlur>
            <feOffset dx="0" dy="1" in="shadowBlurInner1" result="shadowOffsetInner1"></feOffset>
            <feComposite in="shadowOffsetInner1" in2="SourceAlpha" operator="arithmetic" k2="-1" k3="1" result="shadowInnerInner1"></feComposite>
            <feColorMatrix values="0 0 0 0 0   0 0 0 0 0   0 0 0 0 0  0 0 0 0.5 0" type="matrix" in="shadowInnerInner1"></feColorMatrix>
        </filter>
    </defs>
    <g id="Index" stroke="none" stroke-width="1" fill="none" fill-rule="evenodd">
        <g id="edlintics_logo_darkmode">
            <g id="Edlintics" fill-rule="nonzero">
                <use fill="#FFFFFF" xlink:href="#path-1"></use>
                <use fill="black" fill-opacity="1" filter="url(#filter-2)" xlink:href="#path-1"></use>
            </g>
            <path d="M62.0916848,10.8480546 L61.8161318,11.1703809 L61.6497361,10.6683042 L29.914707,20.8610537 L19.6688224,23.792916 L20.1250772,24.0292395 L15.4609569,25.5389102 L15.4843851,25.6093605 L10.5364891,27.1392965 L15.0012876,32.2483762 L9.33537396,27.3352772 L1.63018628,36.1990817 L12.7441045,45.8602634 L21.0911985,36.2583724 L25.7836916,40.4839485 L25.8723302,40.3851578 L61.9033337,71.7076944 L73.7885427,58.0353254 L47.6497413,35.3120196 L58.5586595,31.7807503 L85.093997,54.8475673 L79.920122,79.1675982 L79.5834074,80.9158536 L79.0113299,83.6199942 L79.0585791,83.6305811 L78.4286022,86.3975941 L93.821,99.7780419 L94.2092756,99.3219743 L94.356801,100.23204 L94.4997197,100.162113 L94.642881,100.232106 L94.7805505,99.3804151 L95.1628752,99.792059 L110.526825,86.6509158 L109.988658,83.6199969 L109.418399,80.9247914 L109.079896,79.1675947 L109.04806,79.1737552 L103.906003,54.8475673 L130.441341,31.7807503 L141.350259,35.3120196 L115.211457,58.0353254 L127.096666,71.7076944 L163.216308,40.4839485 L167.908801,36.2583724 L176.255895,45.8602634 L187.369814,36.1990817 L179.664626,27.3352772 L173.998712,32.2483762 L178.463511,27.1392965 L173.539043,25.5389102 L168.627025,23.7529004 L169.014662,24.0739356 L159.085293,20.8610537 L159.061552,20.929859 L127.076461,10.7018897 L94.4998,39.0192092 L62.0916848,10.8480546 Z" id="Combined-Shape" stroke="#FFFFFF" fill="#FFFFFF"></path>
        </g>
    </g>
</svg>