<?xml version="1.0" encoding="UTF-8"?>
<svg width="188px" height="91px" viewBox="0 0 188 91" version="1.1" xmlns="http://www.w3.org/2000/svg" xmlns:xlink="http://www.w3.org/1999/xlink">
    <title>Combined Shape</title>
    <g id="Index" stroke="none" stroke-width="1" fill="none" fill-rule="evenodd">
        <path d="M126.107043,3.48165941e-12 L157.823512,10.2650398 L157.847803,10.1946402 L167.971726,13.4704747 L168.07441,13.3793067 L168.232314,13.5553272 L173.247742,15.1787083 L173.22642,15.2428266 L178.421534,16.8492049 L178.203044,17.0992237 L178.789552,16.5906436 L187.150396,26.2086945 L175.281775,36.5259294 L166.940474,26.9307022 L162.253865,31.1509797 L162.159428,31.0457265 L126.122546,62.3733738 L113.58128,47.9462975 L139.429624,25.4754951 L129.631345,22.3037449 L103.531223,44.9922343 L108.510804,68.5497745 L108.551408,68.5419174 L108.982767,70.7815789 L109.6553,73.9601591 L109.599594,73.972641 L110.090865,76.5162645 L110.149424,76.5833276 L110.110764,76.6168927 L110.133111,76.728629 L109.939445,76.7658181 L94.2009645,90.4471121 L94.186,90.431 L94.1040986,90.9376823 L93.575,90.679 L93.0462975,90.9376823 L92.964,90.43 L92.9494315,90.4471121 L77.2109507,76.7658181 L77.017285,76.728629 L77.0396316,76.6168927 L77.0009719,76.5833276 L77.0595307,76.5162645 L77.550802,73.972641 L77.495096,73.9601591 L78.1676289,70.7815789 L78.5989885,68.5419174 L78.6395924,68.5497745 L83.6191727,44.9922343 L57.5190513,22.3037449 L47.7207719,25.4754951 L73.5691165,47.9462975 L61.0278504,62.3733738 L24.9909681,31.0457265 L24.8965312,31.1509797 L20.2099223,26.9307022 L11.8686212,36.5259294 L8.52651283e-13,26.2086945 L8.36084406,16.5906436 L8.94735186,17.0992237 L8.72886173,16.8492049 L13.9239762,15.2428266 L13.9026537,15.1787083 L18.9180817,13.5553272 L19.0759859,13.3793067 L19.1786696,13.4704747 L29.3025929,10.1946402 L29.3268838,10.2650398 L61.0433532,8.02913291e-13 L61.0871486,0.132146658 L61.1144232,0.100242382 L93.575,28.317 L126.035973,0.100242382 L126.063247,0.132146658 L126.107043,3.48165941e-12 Z" id="Combined-Shape" fill="#010000"></path>
    </g>
</svg>